<?xml version="1.0" encoding="UTF-8"?>
<svg xmlns="http://www.w3.org/2000/svg" xmlns:xlink="http://www.w3.org/1999/xlink" width="65pt" height="65pt" viewBox="0 0 65 65" version="1.1">
<g id="surface17731871">
<path style=" stroke:none;fill-rule:nonzero;fill:rgb(0%,0%,0%);fill-opacity:1;" d="M 19.277344 0.183594 C 8.75 0.183594 0.183594 8.75 0.183594 19.277344 L 0.183594 45.722656 C 0.183594 56.25 8.75 64.816406 19.277344 64.816406 L 45.722656 64.816406 C 56.25 64.816406 64.816406 56.25 64.816406 45.722656 L 64.816406 19.277344 C 64.816406 8.75 56.25 0.183594 45.722656 0.183594 Z M 19.277344 3.121094 L 45.722656 3.121094 C 54.660156 3.121094 61.878906 10.339844 61.878906 19.277344 L 61.878906 45.722656 C 61.878906 54.660156 54.660156 61.878906 45.722656 61.878906 L 19.277344 61.878906 C 10.339844 61.878906 3.121094 54.660156 3.121094 45.722656 L 3.121094 19.277344 C 3.121094 10.339844 10.339844 3.121094 19.277344 3.121094 Z M 50.128906 11.933594 C 48.503906 11.933594 47.191406 13.25 47.191406 14.871094 C 47.191406 16.496094 48.503906 17.808594 50.128906 17.808594 C 51.75 17.808594 53.066406 16.496094 53.066406 14.871094 C 53.066406 13.25 51.75 11.933594 50.128906 11.933594 Z M 32.5 16.339844 C 23.59375 16.339844 16.339844 23.59375 16.339844 32.5 C 16.339844 41.40625 23.59375 48.660156 32.5 48.660156 C 41.40625 48.660156 48.660156 41.40625 48.660156 32.5 C 48.660156 23.59375 41.40625 16.339844 32.5 16.339844 Z M 32.5 19.277344 C 39.820312 19.277344 45.722656 25.179688 45.722656 32.5 C 45.722656 39.820312 39.820312 45.722656 32.5 45.722656 C 25.179688 45.722656 19.277344 39.820312 19.277344 32.5 C 19.277344 25.179688 25.179688 19.277344 32.5 19.277344 Z M 32.5 19.277344 "/>
</g>
</svg>
